<svg id="Ingresar_Dinero" data-name="Ingresar Dinero" xmlns="http://www.w3.org/2000/svg" xmlns:xlink="http://www.w3.org/1999/xlink" width="123" height="131.775" viewBox="0 0 123 131.775">
  <defs>
    <clipPath id="clip-path">
      <rect id="Rectángulo_321" data-name="Rectángulo 321" width="123" height="131.775" fill="none"/>
    </clipPath>
  </defs>
  <g id="Grupo_644" data-name="Grupo 644" clip-path="url(#clip-path)">
    <path id="Trazado_204" data-name="Trazado 204" d="M109.671,67.624H13.329A13.345,13.345,0,0,1,0,54.3V13.329A13.344,13.344,0,0,1,13.329,0h96.341A13.344,13.344,0,0,1,123,13.329V54.3a13.345,13.345,0,0,1-13.329,13.329M13.329,9.036a4.3,4.3,0,0,0-4.294,4.293V54.3a4.3,4.3,0,0,0,4.294,4.294h96.341a4.3,4.3,0,0,0,4.294-4.294V13.329a4.3,4.3,0,0,0-4.294-4.293Z" fill="#ff8500"/>
    <path id="Trazado_205" data-name="Trazado 205" d="M39.023,73.352l-.246,37.9a8.053,8.053,0,0,0,8.053,8.053h60.177a8.053,8.053,0,0,0,8.053-8.053V73.672Z" transform="translate(-15.419 -29.167)" fill="#fff"/>
    <path id="Trazado_206" data-name="Trazado 206" d="M104.025,122.3H43.847A12.585,12.585,0,0,1,31.276,109.73V69.521h9.036V109.73a3.539,3.539,0,0,0,3.535,3.535h60.178a3.539,3.539,0,0,0,3.535-3.535V72.149H116.6V109.73A12.585,12.585,0,0,1,104.025,122.3" transform="translate(-12.436 -27.643)" fill="#009b83"/>
    <path id="Trazado_207" data-name="Trazado 207" d="M95.163,92.009a10.585,10.585,0,1,1-10.5,10.585,10.544,10.544,0,0,1,10.5-10.585" transform="translate(-33.663 -36.585)" fill="#009a83"/>
    <path id="Trazado_208" data-name="Trazado 208" d="M90.632,106.845l.47-1.242h1.408q-.02-.513-.02-.767v-.525H90.6l.491-1.242h1.461a9.262,9.262,0,0,1,1.285-4.3q1.335-1.977,4.725-1.978a9.286,9.286,0,0,1,3.089.5l-.208,1.768a6.8,6.8,0,0,0-2.86-.579q-2.507,0-3.32,1.609a8.065,8.065,0,0,0-.751,2.989h5.794l-.5,1.242H94.462v.577c.007.3.013.534.02.715H99.4l-.449,1.242H94.6a6.409,6.409,0,0,0,.626,2.179q.857,1.481,3.412,1.481a7.361,7.361,0,0,0,3.019-.61l.219,1.779a9.394,9.394,0,0,1-3.237.525q-3.544,0-4.879-1.9a7.793,7.793,0,0,1-1.149-3.452Z" transform="translate(-36.025 -38.485)" fill="#fff"/>
    <path id="Trazado_209" data-name="Trazado 209" d="M86.188,180.993c-11.547,0-22.056-8.155-24.3-19.127a31.662,31.662,0,0,1-.367-7.612c.022-.649.045-1.3.054-1.943l-.017-8.256c-.061-4.117-.053-7.507.023-10.634.149-6.179,4.032-9.7,10.669-9.642,6.021.046,10.3,4.108,10.4,9.876.049,2.931.085,6.064.016,9.272,3.589-.033,7.216-.029,10.732-.025,2.591,0,5.182.006,7.774,0a8.711,8.711,0,0,1,6.49,2.035c1.251,1.14,2.731,3.308,2.675,7.164-.013.9.012,1.815.038,2.779a31.148,31.148,0,0,1-.451,7.74c-2.3,10.448-11.026,17.644-22.229,18.33q-.755.047-1.505.046m-4.741-38.068Z" transform="translate(-24.436 -49.218)" fill="#ff8500"/>
    <path id="Trazado_210" data-name="Trazado 210" d="M73.768,155.951c0,3.211.086,6.422-.021,9.63-.16,4.9,2.232,8.648,6.479,11.548,10.091,6.893,24.375,2.853,27.272-7.695.752-2.737.186-5.551.329-8.325.064-1.243-.393-1.706-1.853-1.684-4.177.07-8.357.014-12.535.036-.5,0-1.218-.257-1.466.309-.236.539.459.806.8,1.16a8.6,8.6,0,0,1,2.159,8.675c-.115.44-.118,1.018-.779,1.178-1.181.286-3.444-1.582-3.294-2.7.566-4.186-2.864-7.14-7.594-6.544-2.1.265-3.066-.46-3.074-2.392-.019-4.664.025-9.328,0-13.99-.013-1.979-1.19-2.865-3.57-2.825-2.15.036-2.829.657-2.841,2.72-.022,3.638-.008,7.269-.008,10.9" transform="translate(-29.321 -56.592)" fill="#fff"/>
    <path id="Trazado_211" data-name="Trazado 211" d="M112.907,71.866H31.34a4.8,4.8,0,0,1,0-9.6h81.566a4.8,4.8,0,0,1,0,9.6" transform="translate(-10.623 -24.759)" fill="#ff8500"/>
  </g>
</svg>
