<svg id="Logo" xmlns="http://www.w3.org/2000/svg" xmlns:xlink="http://www.w3.org/1999/xlink" width="100.172" height="42" viewBox="0 0 100.172 42">
  <defs>
    <clipPath id="clip-path">
      <rect id="Rectángulo_126" data-name="Rectángulo 126" width="100.172" height="42" fill="none"/>
    </clipPath>
  </defs>
  <g id="Grupo_56" data-name="Grupo 56" clip-path="url(#clip-path)">
    <path id="Trazado_62" data-name="Trazado 62" d="M53.8,66.375c.111.8.5,1.271,1.839,1.271a10.13,10.13,0,0,0,3.234-.492V68.3a8.271,8.271,0,0,1-3.183.593c-2.8,0-3.718-.693-3.718-3.46,0-2.414.8-3.322,3.681-3.322,2.388,0,3.444.8,3.469,2.141,0,1.664-1.143,2.071-5.321,2.121m-17.468-5.24H34.588V59.47h1.742ZM13.253,67.61c1.274,0,1.647-.185,1.647-.814V65.77l-1.56.073c-1.566.087-1.927.31-1.927.829,0,.778.237.937,1.84.937m23.077,1.174H34.588V62.262h1.742Zm24.107-4.422A2.177,2.177,0,0,1,62.9,62.089a22.8,22.8,0,0,1,2.281.136v1.242H63.334c-.945,0-1.181.087-1.181.995v4.323H60.436ZM4.984,67.61c-1.772,0-2.039-.3-2.039-2.273,0-1.685.553-1.92,1.964-1.92s1.977.236,1.977,1.92c0,1.977-.312,2.273-1.9,2.273m45.991-4.044H48.1v3.181c0,.593.436.827,1.145.827a7.575,7.575,0,0,0,1.765-.172v1.173a7.908,7.908,0,0,1-1.977.3c-1.9,0-2.624-.79-2.624-1.976V60.211H48.1v2.1h2.872ZM39.6,68.784v-4.1c0-.995.348-1.267,1.8-1.267,1.5,0,1.827.272,1.827,1.267v4.1h1.729V64.622c0-1.86-1.368-2.47-3.246-2.47h-.585c-1.889,0-3.244.611-3.244,2.47v4.162Zm-19.868,0v-4.1c0-.995.348-1.267,1.809-1.267,1.491,0,1.827.272,1.827,1.267v4.1h1.716V64.622c0-1.86-1.355-2.47-3.239-2.47h-.578c-1.889,0-3.251.611-3.251,2.47v4.162Zm8.616-2.645v2.645h-1.7V59.47h1.715v5.2h.324a1.162,1.162,0,0,0,1.038-.446l2.015-1.964h1.983l-3.059,3.1,3.295,3.422H31.747l-2.1-2.235a1.042,1.042,0,0,0-1-.409ZM14.9,64.634v-.308c0-.748-.5-.909-1.808-.909a9.7,9.7,0,0,0-2.9.451V62.651a8.751,8.751,0,0,1,2.965-.525c1.883,0,3.475.3,3.475,2.41v1.988c0,2.332-1.914,2.347-3.475,2.347-2.35,0-3.5-.655-3.5-1.976,0-1.779,1.147-2.126,5.244-2.261M5.01,68.87c2.446,0,3.655-.729,3.655-3.335,0-2.353-.9-3.41-3.326-3.41a3.505,3.505,0,0,0-2.32.525V59.47H1.3V65.7c0,2.384,1.05,3.174,3.712,3.174M54.7,65.1c2.251-.1,2.612-.284,2.612-.8,0-.611-.411-.907-1.691-.907-1.641,0-1.852.3-1.852,1.76Z" transform="translate(-0.582 -26.895)" fill="#fff" fill-rule="evenodd"/>
    <path id="Trazado_63" data-name="Trazado 63" d="M0,28.732l.777-4.751a56.831,56.831,0,0,0,15.189,2.069q4.972,0,6.8-1.253a3.678,3.678,0,0,0,1.554-3.235,2.95,2.95,0,0,0-1.438-2.71,9.467,9.467,0,0,0-2.875-.933q-.312-.058-4.545-.758Q7.808,15.909,4.74,14.393A5.64,5.64,0,0,1,1.4,8.914a8.973,8.973,0,0,1,1.243-4.6Q5.05.083,14.8.083A63.807,63.807,0,0,1,28.008,1.511l-.777,4.576A46.574,46.574,0,0,0,15.422,4.513q-4.351,0-5.827,1.02a3.111,3.111,0,0,0-1.321,2.71,3.1,3.1,0,0,0,1.865,3,11.718,11.718,0,0,0,3.186.9l4.584.787a41.141,41.141,0,0,1,9.633,2.507A5.841,5.841,0,0,1,31.193,21.1q0,4.489-2.952,6.674-3.612,2.653-12.547,2.652a81.784,81.784,0,0,1-11.343-.816A35.182,35.182,0,0,1,0,28.732" transform="translate(0 -0.037)" fill="#fff"/>
    <path id="Trazado_64" data-name="Trazado 64" d="M149.165,0s.109,13.151,0,15.854c-.19,4.7-7.13,4.463-10.548,4.463-2.564,0-5.945-.71-6.677-2.13q-.659-1.217-.66-5.882V.16l-6.629.045V13.149q0,5.511.952,7.742,1.941,4.665,9.743,4.666c3.174,0,11.329-.174,13.928-1.921v2.621c0,3.855-.475,4.912-1.135,6.332-1.3,2.84-6.392,4.271-11.861,4.271H123.973v5.127H137.1V41.98c4.964-.079,10.2-.866,12.763-2.359q4.505-2.6,5.42-8.858a71.671,71.671,0,0,0,.514-9.771V0Z" transform="translate(-55.622 0)" fill="#fff"/>
    <path id="Trazado_65" data-name="Trazado 65" d="M92.314,15.612C92.314,5.038,88.263.291,77.368.291l-.48,0-.48,0c-10.9,0-14.946,4.747-14.946,15.321,0,11.307,5.072,14.746,15.314,14.97v.009l.113,0,.112,0v-.009c10.242-.224,15.314-3.663,15.314-14.97" transform="translate(-27.575 -0.131)" fill="#fff" fill-rule="evenodd"/>
    <path id="Trazado_66" data-name="Trazado 66" d="M73.051,17.3c0-5.328-2.041-7.72-7.531-7.72h-.484c-5.49,0-7.531,2.392-7.531,7.72,0,5.7,2.556,7.431,7.716,7.544v0l.057,0,.057,0v0c5.161-.113,7.716-1.846,7.716-7.544" transform="translate(-25.8 -4.333)" fill="#f9f9f9" fill-rule="evenodd"/>
    <path id="Trazado_67" data-name="Trazado 67" d="M63.853,25v-.052c-5.468-.311-7.716-2.748-7.716-8.264,0-5.858,2.555-8.469,8.285-8.469h.484c5.73,0,8.285,2.611,8.285,8.469,0,5.51-2.243,7.947-7.7,8.262l0,.05-.839-.017-.032,0Zm.569-15.287c-4.941,0-6.778,1.889-6.778,6.971,0,4.9,1.827,6.681,6.979,6.795h.08c5.153-.113,6.979-1.891,6.979-6.795,0-5.082-1.837-6.971-6.777-6.971h-.484Z" transform="translate(-25.186 -3.715)" fill="#ff8500"/>
    <path id="Trazado_68" data-name="Trazado 68" d="M108.386,17.3c0-5.328-2.041-7.72-7.531-7.72h-.484c-5.49,0-7.531,2.392-7.531,7.72,0,5.7,2.556,7.431,7.716,7.544v0l.057,0,.057,0v0c5.16-.113,7.716-1.846,7.716-7.544" transform="translate(-41.654 -4.333)" fill="#f9f9f9" fill-rule="evenodd"/>
    <path id="Trazado_69" data-name="Trazado 69" d="M99.166,25l0-.054c-5.454-.315-7.7-2.752-7.7-8.262,0-5.858,2.555-8.469,8.285-8.469h.484c5.73,0,8.285,2.611,8.285,8.469,0,5.516-2.248,7.953-7.717,8.264V25l-.817-.016-.031,0Zm.59-15.288c-4.94,0-6.778,1.889-6.778,6.971,0,4.9,1.827,6.681,6.979,6.795h.08c5.153-.113,6.979-1.891,6.979-6.795,0-5.082-1.837-6.971-6.777-6.971h-.484Z" transform="translate(-41.04 -3.715)" fill="#ff8500"/>
    <path id="Trazado_70" data-name="Trazado 70" d="M88.727,19.316a.49.49,0,0,1-.48-.5,1.361,1.361,0,0,0-1.352-1.145,1.125,1.125,0,0,0-1.1,1.145.49.49,0,0,1-.48.5h-.5a.49.49,0,0,1-.48-.5,2.555,2.555,0,0,1,5.089-.416.5.5,0,0,1,.216.416.49.49,0,0,1-.48.5Z" transform="translate(-37.838 -7.305)" fill="#ff8500"/>
  </g>
</svg>
