<svg id="Pago_M칩vil" data-name="Pago M칩vil" xmlns="http://www.w3.org/2000/svg" xmlns:xlink="http://www.w3.org/1999/xlink" width="78.803" height="123" viewBox="0 0 78.803 123">
  <defs>
    <clipPath id="clip-path">
      <rect id="Rect치ngulo_324" data-name="Rect치ngulo 324" width="78.803" height="123" fill="none"/>
    </clipPath>
  </defs>
  <g id="Grupo_650" data-name="Grupo 650" clip-path="url(#clip-path)">
    <path id="Trazado_229" data-name="Trazado 229" d="M76.988,85.967H13.344a.278.278,0,0,1-.278-.278V10.3a.278.278,0,0,1,.278-.278H76.988a.278.278,0,0,1,.278.278V85.689a.277.277,0,0,1-.278.278" transform="translate(-5.797 -4.444)" fill="#fff"/>
    <path id="Trazado_230" data-name="Trazado 230" d="M78.762,15.943C78.724,5.43,74.285.418,63.851.221Q39.19-.243,14.515.245C4.577.434.052,5.561.036,15.711q-.072,45.749,0,91.5C.05,117.5,4.57,122.563,14.78,122.757q24.5.468,49.006.012c10.584-.206,14.948-5.21,14.98-16,.046-15.138.051-75.692-.005-90.83M35.915,96.794h7.522v7.143H35.915ZM7.346,14.4c0-5.007,2.165-7.008,8.285-7.008,14.916,0,31.227-.04,46.144-.04,7.822,0,9.506,1.749,9.506,7.048,0,1.668,0,64.174-.093,65.879H7.6C7.5,78.787,7.346,33.2,7.346,14.4" transform="translate(0 0)" fill="#ff8500"/>
    <path id="Trazado_231" data-name="Trazado 231" d="M44.353,69.544l1.262-3.852h3.141q-.05-1.023-.051-2.747c0-.036.009-.135.026-.3h-4.5L45.516,58.8h3.438q.642-6.788,3.239-10.56Q55.654,43.2,63.27,43.2a22.985,22.985,0,0,1,7.665,1.293l-.643,6.034a18.966,18.966,0,0,0-6.726-1.4q-5.094,0-6.8,3.879a22.014,22.014,0,0,0-1.41,5.792h12.29l-1.286,3.852H55.16v1q0,1.159.05,2.047H65.4l-1.261,3.852H55.58a12.8,12.8,0,0,0,1.211,3.906q1.781,3.286,6.948,3.286a20.743,20.743,0,0,0,7.121-1.455l.668,6.061a23.451,23.451,0,0,1-7.963,1.32q-8.062,0-11.448-4.661A19.337,19.337,0,0,1,49.1,69.544Z" transform="translate(-19.622 -19.165)" fill="#1c9c82"/>
  </g>
</svg>
