<svg id="Retirar_dinero" data-name="Retirar dinero" xmlns="http://www.w3.org/2000/svg" xmlns:xlink="http://www.w3.org/1999/xlink" width="123" height="122.222" viewBox="0 0 123 122.222">
  <defs>
    <clipPath id="clip-path">
      <rect id="Rectángulo_322" data-name="Rectángulo 322" width="123" height="122.222" fill="none"/>
    </clipPath>
  </defs>
  <g id="Grupo_646" data-name="Grupo 646" clip-path="url(#clip-path)">
    <path id="Trazado_212" data-name="Trazado 212" d="M84.767,76.267A20.593,20.593,0,1,1,64.175,55.674,20.592,20.592,0,0,1,84.767,76.267" transform="translate(-17.612 -22.499)" fill="#fff"/>
    <path id="Trazado_213" data-name="Trazado 213" d="M61.144,98.3A25.062,25.062,0,1,1,86.205,73.236,25.09,25.09,0,0,1,61.144,98.3m0-41.185A16.123,16.123,0,1,0,77.267,73.236,16.142,16.142,0,0,0,61.144,57.112" transform="translate(-14.581 -19.468)" fill="#219c82"/>
    <path id="Trazado_214" data-name="Trazado 214" d="M61.4,86.176l.816-2.308h2.033q-.033-.613-.033-1.646c0-.022.006-.081.016-.178H61.318l.832-2.307h2.224a12.658,12.658,0,0,1,2.1-6.327q2.24-3.018,7.168-3.018a15.94,15.94,0,0,1,4.96.775l-.416,3.615a13.12,13.12,0,0,0-4.352-.84q-3.3,0-4.4,2.325a12.4,12.4,0,0,0-.912,3.47h7.952l-.832,2.307H68.391v.6q0,.694.032,1.226h6.592L74.2,86.176H68.663a7.257,7.257,0,0,0,.784,2.341q1.152,1.969,4.5,1.969a14.36,14.36,0,0,0,4.608-.871l.433,3.631a16.267,16.267,0,0,1-5.153.791q-5.216,0-7.408-2.792a11.067,11.067,0,0,1-1.952-5.068Z" transform="translate(-24.78 -28.447)" fill="#209c82"/>
    <path id="Trazado_215" data-name="Trazado 215" d="M170.985,28.093A20.593,20.593,0,1,1,150.393,7.5a20.592,20.592,0,0,1,20.593,20.593" transform="translate(-52.454 -3.031)" fill="#fff"/>
    <path id="Trazado_216" data-name="Trazado 216" d="M147.362,50.123a25.062,25.062,0,1,1,25.062-25.062,25.09,25.09,0,0,1-25.062,25.062m0-41.185a16.123,16.123,0,1,0,16.123,16.123A16.142,16.142,0,0,0,147.362,8.938" transform="translate(-49.423)" fill="#219c82"/>
    <path id="Trazado_217" data-name="Trazado 217" d="M7.5,109.638V152.73a6.7,6.7,0,0,0,6.711,6.692H86.423a6.3,6.3,0,0,0,6.313-6.295V109.438a6.336,6.336,0,0,0-6.346-6.327H14.046A6.537,6.537,0,0,0,7.5,109.638" transform="translate(-3.031 -41.669)" fill="#fff"/>
    <path id="Trazado_218" data-name="Trazado 218" d="M83.392,160.859H11.181A11.183,11.183,0,0,1,0,149.7V106.607a11.019,11.019,0,0,1,11.016-11H83.36a10.818,10.818,0,0,1,10.815,10.8V150.1a10.786,10.786,0,0,1-10.783,10.764M11.016,104.548a2.071,2.071,0,0,0-2.077,2.059V149.7a2.235,2.235,0,0,0,2.242,2.223H83.392a1.838,1.838,0,0,0,1.845-1.826V106.406a1.87,1.87,0,0,0-1.876-1.858Z" transform="translate(0 -38.638)" fill="#ff8500"/>
    <path id="Trazado_219" data-name="Trazado 219" d="M148.249,153.312H137.186a4.615,4.615,0,0,1-4.615-4.615v-9.948a4.615,4.615,0,0,1,4.615-4.615h11.063a4.615,4.615,0,0,1,4.615,4.615V148.7a4.615,4.615,0,0,1-4.615,4.615" transform="translate(-53.574 -54.205)" fill="#fff"/>
    <path id="Trazado_220" data-name="Trazado 220" d="M145.3,154.712H134.236a8.975,8.975,0,0,1-8.965-8.965V135.8a8.976,8.976,0,0,1,8.965-8.966H145.3a8.976,8.976,0,0,1,8.965,8.966v9.949a8.975,8.975,0,0,1-8.965,8.965m-11.063-19.179a.265.265,0,0,0-.265.265v9.949a.265.265,0,0,0,.265.264H145.3a.265.265,0,0,0,.265-.264V135.8a.265.265,0,0,0-.265-.265Z" transform="translate(-50.624 -51.255)" fill="#ff8500"/>
    <path id="Trazado_221" data-name="Trazado 221" d="M146.923,38.037l.816-2.308h2.033q-.033-.613-.033-1.646c0-.022.006-.081.016-.178h-2.912l.832-2.307H149.9a12.658,12.658,0,0,1,2.1-6.327q2.24-3.018,7.168-3.018a15.941,15.941,0,0,1,4.96.775l-.416,3.615a13.12,13.12,0,0,0-4.352-.84q-3.3,0-4.4,2.325a12.4,12.4,0,0,0-.912,3.47H162l-.832,2.307h-7.248v.6q0,.694.032,1.226h6.592l-.816,2.308h-5.535a7.257,7.257,0,0,0,.784,2.341q1.152,1.969,4.5,1.969a14.359,14.359,0,0,0,4.608-.871l.433,3.631a16.267,16.267,0,0,1-5.153.791q-5.216,0-7.408-2.792A11.067,11.067,0,0,1,150,38.037Z" transform="translate(-59.342 -8.993)" fill="#209c82"/>
  </g>
</svg>
