<svg id="Ver_Cuentas" data-name="Ver Cuentas" xmlns="http://www.w3.org/2000/svg" xmlns:xlink="http://www.w3.org/1999/xlink" width="123" height="122.403" viewBox="0 0 123 122.403">
  <defs>
    <clipPath id="clip-path">
      <rect id="Rectángulo_323" data-name="Rectángulo 323" width="123" height="122.403" fill="none"/>
    </clipPath>
  </defs>
  <g id="Grupo_648" data-name="Grupo 648" clip-path="url(#clip-path)">
    <path id="Trazado_222" data-name="Trazado 222" d="M92.914,50.207A42.707,42.707,0,1,1,50.207,7.5,42.707,42.707,0,0,1,92.914,50.207" transform="translate(-3.021 -3.021)" fill="#fff"/>
    <path id="Trazado_223" data-name="Trazado 223" d="M47.187,94.373A47.187,47.187,0,1,1,94.372,47.187,47.24,47.24,0,0,1,47.187,94.373m0-85.415A38.228,38.228,0,1,0,85.414,47.187,38.271,38.271,0,0,0,47.187,8.958" fill="#219c82"/>
    <path id="Trazado_224" data-name="Trazado 224" d="M42.75,70.189l1.8-5.074h4.468q-.071-1.349-.072-3.62c0-.048.013-.179.036-.391h-6.4L44.4,56.03H49.3q.913-8.943,4.608-13.912,4.926-6.636,15.762-6.637a35.081,35.081,0,0,1,10.907,1.7l-.915,7.95a28.863,28.863,0,0,0-9.569-1.845q-7.249,0-9.675,5.11a27.3,27.3,0,0,0-2.006,7.631H75.894L74.065,61.1H58.126v1.314q0,1.525.07,2.7h14.5l-1.8,5.074H58.725a15.979,15.979,0,0,0,1.723,5.146q2.533,4.331,9.886,4.33a31.581,31.581,0,0,0,10.133-1.917l.951,7.984a35.793,35.793,0,0,1-11.329,1.74q-11.47,0-16.289-6.14-3.1-3.94-4.293-11.144Z" transform="translate(-17.148 -14.291)" fill="#209c82"/>
    <path id="Trazado_225" data-name="Trazado 225" d="M72.789,152.546s12.646-19.1,37.123-19.1c0,0,20.707-1.163,36.715,19.053,0,0-14.366,19.613-36.715,19.053,0,0-18.091,2.241-37.123-19.01" transform="translate(-29.317 -53.745)" fill="#fff"/>
    <path id="Trazado_226" data-name="Trazado 226" d="M104.538,173.095c-5.707,0-22.155-1.807-38.969-20.583l-2.332-2.6,1.93-2.915c.571-.862,14.259-21.07,40.794-21.122,2.185-.088,23.642-.352,40.367,20.769l2.14,2.7-2.038,2.782c-.634.866-15.6,20.915-39.415,20.916-.264,0-.528,0-.794-.008-.355.029-.925.061-1.685.061M74.91,149.228c15.975,16.108,30.017,14.846,30.637,14.776l.334-.041.3.013c14.977.393,26.1-9.6,30.668-14.523-13.788-15.118-29.835-14.569-30.549-14.535l-.232.006a41.635,41.635,0,0,0-31.154,14.3" transform="translate(-25.47 -50.691)" fill="#ff8500"/>
    <path id="Trazado_227" data-name="Trazado 227" d="M137.4,158.445a10.474,10.474,0,1,1-10.474-10.474A10.474,10.474,0,0,1,137.4,158.445" transform="translate(-46.903 -59.598)" fill="#fff"/>
    <path id="Trazado_228" data-name="Trazado 228" d="M123.87,170.393a15,15,0,1,1,15-15,15.017,15.017,0,0,1-15,15m0-20.947a5.946,5.946,0,1,0,5.947,5.947,5.954,5.954,0,0,0-5.947-5.947" transform="translate(-43.849 -56.546)" fill="#ff8500"/>
  </g>
</svg>
